<?xml version="1.0" encoding="utf-8"?>
<!-- Generator: Adobe Illustrator 28.0.0, SVG Export Plug-In . SVG Version: 6.00 Build 0)  -->
<svg version="1.1" id="Layer_1" xmlns="http://www.w3.org/2000/svg" xmlns:xlink="http://www.w3.org/1999/xlink" x="0px" y="0px"
	 viewBox="0 0 790 780" style="enable-background:new 0 0 790 780;" xml:space="preserve">
<style type="text/css">
	.st0{fill-rule:evenodd;clip-rule:evenodd;fill:#FFFFFF;}
</style>
<g>
	<path class="st0" d="M154.5,326.2c1.1,0.8,2.9,1.3,1.1,2.9c-1.3,1.8-2.9,3.4-4,5.5c-1,1.9-1.8,2.4-3.4,1.1
		C150.3,332.3,152.4,329.1,154.5,326.2L154.5,326.2z M683.4,602.4c0,0.8,0.3,1.3,0.3,2.1c0.5-1,0.5-1.6,0.8-2.1H683.4z M683.4,604.8
		v-0.3V604.8z M629.7,707.5l-45.8-254c-0.8-0.3-1.8-0.8-3.7-1.3c0.5,1,0.8,1.8,1.1,2.6c1.3-0.3,1.8-0.3,2.4-0.5c0-0.3,0-0.5,0.3-0.8
		L629.7,707.5L629.7,707.5z M582.4,396.3c-0.3,0.8-0.3,1.6-0.3,2.4C582.1,397.9,582.1,397.1,582.4,396.3L582.4,396.3z M582.6,401.6
		c-0.3,0-0.3,0-0.5-0.3v0.3C582.4,401.8,582.4,401.8,582.6,401.6L582.6,401.6z M582.1,403.7v-1.9c-0.8,0.3-1.6,0.3-2.6,0.5
		C580.8,402.9,582.1,403.2,582.1,403.7L582.1,403.7z"/>
	<path class="st0" d="M787.1,339.7c-0.5-10.3-0.8-20.6-1.8-30.8c-1.8-14-3.7-28.2-6.8-41.9c-2.4-11.3-6.3-22.1-10.3-32.9
		c-5-12.6-10-25.6-16.3-37.7c-10.3-19.5-23.7-36.9-36.1-55.1c-8.2-11.6-18.7-21.1-26.6-32.9c-4.5-6.9-11.1-12.6-17.6-17.9
		C661,81.9,650,74.3,638.9,66.9c-8.4-5.8-16.8-11.3-25.8-16.3c-7.1-4-14.7-7.1-22.1-10.6c-8.4-3.9-16.6-8.7-26-10.5
		c-2.4-0.5-4.5-1.3-6.9-2.1c-6-2.1-11.8-4.5-17.9-6.3c-9.2-2.9-18.2-6.3-27.6-8.7c-9.2-2.4-18.7-3.9-28.1-5.3
		C473.9,5.6,463.2,5,452.6,4c-6.8-0.8-13.7-1.6-20.3-1.8c-10-0.5-20.3-0.5-30.3-0.8c-5-0.3-10.3-0.8-15.3-0.5
		c-7.6,0.3-15.3,1-22.9,2.1c-7.4,0.8-14.7,2.1-21.8,3.2c-8.7,1.1-17.4,1.6-26,2.6c-8.2,1.1-16.6,2.6-24.7,4
		c-2.9,0.5-5.8,1.6-8.7,2.1c-6.3,1.3-12.9,1.8-19.2,4c-11.3,3.4-22.6,7.4-33.7,11.6c-10.3,4.2-20.3,8.7-30,14
		c-10,5.5-19.5,12.1-29,18.4c-9,6.1-17.9,12.4-26.6,19.2c-8.4,6.6-16.3,14-23.9,21.4c-4.2,4.2-7.6,9.2-11.6,14
		c-6.6,7.7-13.2,15-19.5,22.9c-5.2,6.6-10,13.4-15,20.3c-8.9,12.1-16.6,25-23.7,37.9c-2.9,5.3-5.5,10.5-8.2,15.8
		c-4,7.9-8.2,15.6-11.8,23.7c-2.6,5.5-4.7,11.6-6.3,17.7c-3.7,12.9-7.4,26.1-10.8,39c-3.2,11.6-3.9,23.7-4.2,35.6
		C9,340.8,10,351,11.1,361.6c0.3,2.6-1.3,5.8,1.8,7.9c-1.1,2.9-0.3,4.5,1.3,5c-1.8,2.9,0.8,4.8-0.2,7.4c-0.3,0.5,0.8,1.6,1.3,2.4
		c0,0.8-0.2,1.9,0,2.6c0.3,2.4,1.3,4.7,1.3,7.4c0,1.8,1.6,4,2.1,5.8c0.3,0.8,0,2.1-0.5,2.6c-1.6,1.8-1.3,3.4,1.1,4.5
		c1.3,3.4,0.8,5,0.5,6.6c0.5,2.4-0.3,3.1,0,3.7c2.1,4.2,2.9,9,3.2,13.7c0,1.1,0.5,2.1,1.1,3.4c0.3,0,0,5,0,5c1.3-0.8,2.4-1,3.7-1.6
		c0.8,3.4,1.6,6.6,2.6,9.5c1.3,2.1,1.3,3.1,0.8,3.4c1.1,4.7,1.6,9.2,3.4,13.7c0-5-0.5-10-1.3-14.8c3.7,1.3,6.8,2.6,9,2.6
		c0.3-0.8,0.5-1.8,0.8-2.4c-1.6-1.6-2.9-3.9-4.5-5.5c0.5,2.1,0,2.9,0,3.7c-1-0.5-2.4-1.1-3.7-1.6c1-1.3,2.1-2.6,3.7-4.2
		c0-2.4-1.3-4.5-5-4.2c1.6-0.5,3.2-1.3,5-1.8c2.9-1.6-0.3-4.5-0.3-8.2c0.3-4.5-2.4-8.9-3.2-13.7c-1.3-7.4-1-18.4-1.8-25.8
		c-1.6-1.3-2.9,2.1-3.2,2.4c0.8,6.3,1.6,12.6,2.1,19c-1.6-5.3-2.6-11.1-3.9-17.4c-0.3,1.9-0.5,2.6-0.5,3.7c-1.3,1.3-0.3,2.9,0.5,4.7
		c-1.8-0.8-4-0.5-4-0.5v7.4c-2.6-2.6-3.4-4.7-4.7-6.6c-0.5-2.1-0.8-4.2-1.3-6.3c0.5-1.3,0-2.1,0-2.9c-0.3-1.9-0.5-4-0.8-6.3
		c0.3-0.3-0.3-4.2-0.3-4.2c2.1,0.2,3.4,0.5,4.7,0.5c-2.6-3.4-0.8-5.5,0.3-7.6c0.5-1.1,2.4-1.3,2.9-2.4c2.1-4,5.5-7.1,5.5-12.1
		c0-2.4,0.8-5,1-7.4c0.5-4.5,1-9,1.3-13.4c0.5-5.8,0-11.6,1.3-17.1c2.1-9.2,4.7-18.4,7.6-27.7c2.1-6.6,4.5-12.9,7.1-19.5
		c4-10.3,7.6-20.6,12.6-30.3c7.1-14.2,15.3-27.9,23.2-41.9c5-8.7,10.3-16.9,15.8-25.3c5.2-8.2,10.5-16.6,16.6-24.3
		c8.4-10.8,17.6-20.8,27.9-29.8c10.5-9.5,20.5-19.2,31.8-27.9c14.7-11.4,30.3-21.4,46.8-30.1c13.4-7.1,27.4-12.7,41.3-17.9
		c9-3.4,18.7-5,27.9-7.9c10.5-3.4,21-5,32.1-5.3c7.1-0.3,14-1.1,21.1-1.9c6.3-0.5,12.6-1,19.5-1.8c-0.8,1-1.1,1.6-1.3,2.1
		c-2.9,4.2-6,8.4-8.9,12.6c-2.4,3.4-5,7.1-7.4,10.5c-4.2,5.5-8.7,11.1-12.6,16.9c-6,8.7-11.6,17.7-17.9,26.4
		c-6.3,8.4-13.1,16.3-19.7,24.5c-8.7,11.3-16.8,22.9-25.5,34.3c-7.9,10.8-16.3,21.1-23.9,31.9c-6.8,9.5-12.9,19.5-19.5,29.2
		c-9.7,14.5-19.5,28.7-29.2,43.2c-7.6,11.1-15.3,21.9-23.2,32.9c-0.5,0.8-1.3,1-2.1,1.6c-2.1,3.4-2.1,5.3-2.9,6.8
		c-2.1,4-4.2,7.9-6.6,11.6c-1.3,2.1-3.2,3.9-4.7,6.1c-0.3-3.2,4.2-4.7,2.1-8.7c-1.3,2.1-2.6,4-3.9,6.1l-3.2,6.3c1,0.8,2.9,1.3,1,2.9
		c-0.8,1.3-1.6,2.9-2.4,4.2c1.3-0.8,2.1-1.6,2.9-2.6c0,2.9-1.6,5.3-2.9,7.6c-1.1,2.1-3.7,3.7-5.5,5.3c0.3,0.3,2.1,1.1,2.4,1.3
		c2.4-0.8,3.2-2.1,3.4-1.3c0.8-1,1.6-1.8,1.8-2.6c1-2.6,2.6-4.7,5.3-5.8c1.1-0.5,1.8-1.3,2.6-2.1c7.9-8.2,16.1-16.1,23.2-24.8
		c11.1-13.5,21.1-27.4,31.6-41.1c4.5-5.8,9.7-11.6,14.5-17.1c0.8,6.1,0.3,11.9,0,17.4c-0.8,9.7-1.3,19.5-2.1,29.5
		c-0.3,4,0,7.9-0.3,11.9c0,1-0.8,1.8-0.8,2.9c0,2.6,0.8,5.5,0.8,8.2c-0.8,9.7-1.9,19.2-2.6,29c-0.3,2.1,0.8,4.2,1.3,6.1
		c-1.3,14.2,1.6,29.2-0.8,44.3c1.8-2.9,2.4-4.7,2.4-6.6c0.2-1.6,0-3.2,0-5v-2.6c0.2-4.7,1.3-9.7,0.8-14.5
		c-0.5-5.3-0.5-10.3,0.5-15.3c0.5-2.1-0.3-4.7,1.1-7.4v4c-0.3,15,0.3,30-1.8,45.1c-0.3,1.3,0.8,3.7-2.1,3.4
		c-2.4,4.7,0.5,8.2-2.1,10.8c-0.5,0.5,0.5,2.9,0.8,4.5c-1.1,3.2-1.1,3.2,0.5,3.4c0.3,5.8,0.8,11.1,1,16.6c4.2-10,2.1-20.3,4-30.6
		c0.3,4.2,0.5,8.4,0.3,12.9c0,6.9-0.3,13.5-0.5,20.3c0,1.3-0.3,2.6-0.5,4c-0.8,3.7-1,7.4-2.4,10.8c-1,2.6-0.5,6.6-0.5,9.8v10
		c1.1,4.5-0.3,6.9,0.5,9.5c-0.8,2.6-1,3.4-0.8,4.2l0.8,4c5.3-0.5,2.9,3.4,5,5.5c-1.6,2.1-1,2.9-1,4c0,2.4-0.2,4.5-0.5,6.9
		c0,6.1-0.3,12.1-0.3,17.9c0,0.8,0.3,1.6,0.3,2.4c0,0.5-0.3,7.4-0.3,7.4c0.5,0.8,0,1.6-0.8,2.4c-0.2,0-1-33.5-1-33.5h-4
		c-0.5,15.8,0.8,30-2.1,44.8c-3.2,0.2-4.2,0.8-7.6,0.8c-8.2,0-16.3,0-24.5,0.3c-9.7,0-19.2,0.3-28.9,0.3c-4.7,0-9.7,0.5-14.5,0.5
		c-6.3,0-12.9-0.8-19.2-0.8c-9.8,0-19.2,0.8-29,1.1c-7.1,0.3-14.2,0.3-21.3,0.5c-4.7,0.2-9.5,0.5-14.2,1c-2.1,0.3-4,1-6.6,1.8
		c-0.8,0-2.6-0.3-4.2,0c-2.6,0.5-5,2.1-7.6,2.6c-4,0.8-5,1.8-4.5,5.8v2.6c-0.3,0.5,5.8-0.8,5.8-0.8c-0.5,0-0.8,1.6-1.6,2.9
		c2.1-0.8,3.4-1.3,4.8-1.8c3.9,1.9,7.4,0.8,10.5,1.6c10.3,2.6,20.8,3.7,31.3,4.7c6.9,0.5,13.4,0.8,20.3,1c9.7,0.5,19.5,1.1,29.2,1.1
		c8.2,0,16.1-0.8,24.2-0.8c11.3,0,22.6,0.5,33.9,0.8c2.4,0,5-0.3,7.6-0.3h19.2c17.1-0.5,34.2-0.8,51.3-1.3
		c9.8-0.3,19.8-0.8,29.5-1.1l30-0.8c11.6-0.3,23.2-0.3,34.5-0.5c8.7,0,17.1-0.3,25.8-0.6c9.7-0.3,19.7-1,29.5-1.6
		c5.3-0.3,10.5-0.8,15.8-1.3c6.3-0.5,12.9-1.3,19.2-1.6c9.5-0.5,19.2-0.8,28.7-1.3c11.8-0.8,23.7-1.8,35.8-2.1
		c11.1-0.5,22.4-0.3,33.4-0.5c9.7-0.3,19.5-0.8,29.5-1.1l16.6-0.8c0,0,11-0.3,16.6-0.8c9.5-0.5,18.9-1.6,28.4-1.8
		c6-0.3,12.1,0,18.2-0.3c9.7-0.3,19.7-0.8,29.5-0.8c3.7,0,7.6,0.5,12.4,0.8c-2.1,1.8-3.4,2.9-5,4.2c1.1,0.3,2.1,0.8,3.2,1.3
		c-1.6,1-2.9,1.3-4.2,1.3c-0.5,1.3-1.1,1.9-1.6,4.5h4.7c-1.8,0-3.4,2.4-5.3,4c-2.1-0.5-4,0-5,2.9c1.8,1,1.6,1.8,1.3,2.9
		c-3.2,1-5.5,2.1-4.2,5.5c-1.1,0.5-2.4,1-3.7,1.8c-1.3,2.1-3.7,2.6-3.2,5.5c1.1,0.2,2.1,0.8,2.9,1c-1.3,0.5-2.6,1.3-3.9,1.8
		c-4.7,2.9-2.6,4.2-1.6,5.5c-0.8,0.5-1.6,1-2.4,1.3c0.5,2.4,1.3,2.9,1.6,2.9c-1.1,0.8-2.4,1.8-3.9,3.2c-0.8,2.4-1.8,3.4-2.9,5
		s-1.6,3.7-2.9,5.3c-5.5,6.1-9.5,13.2-16.6,17.9c-2.6,1.9-5,4.2-7.4,6.6c-4.7,4.5-9,9.5-14,13.7c-6.6,5.5-13.4,10.5-20.5,15.5
		c-8.7,6.1-17.3,12.1-26,17.9c-4.7,3.2-10,5.5-15,8.4s-9.7,5.5-14.7,8.4c-3.2,2.1-6.1,5-9.5,6.6c-8.7,3.7-17.9,6.8-26.8,10.3
		c-8.7,3.7-15,6.8-21.6,9.2c-6.1,2.1-12.4,3.7-18.7,5c-2.1,0.5-4.5,0-6.9,0.3c-4.5,0.8-8.9,1.9-13.4,2.4
		c-11.6,1.6-23.2,2.6-34.7,4.2c-6.9,0.8-13.4,2.1-20.3,2.9c-4.7,0.3-9.7-0.3-14.5-0.3c-3.4,0-7.1,0.8-10.5,0.3
		c-5.5-0.8-11.1-2.1-16.6-3.2c-1.3-0.3-3.2-0.8-4.2-0.3c-2.1,1.1-4-0.5-6.1,0c-1.3,0.3-2.6-0.8-3.9-0.8c-1.1-0.3-2.4,0.3-3.7,0
		c-2.9-0.8-5.5-1.8-8.7-1.6c-3.1,0.3-6.3-1.3-9.7-2.1c-4.8-1.1-9.2-2.1-14-3.2c-1.8-0.5-3.4-1.3-5.2-2.4c-6.9,0-11.3-0.3-15.5-1.8
		c-3.7-1.3-7.1-3.2-11.1-2.6c-1,0.3-1.8-0.3-2.9-0.3c-0.8-1.1-1.6-3.2-2.4-3.2c-5.3,0.3-8.4-4.2-12.9-5.5c-2.4-0.8-4.2-3.4-6.6-4.2
		c-5.8-2.4-10.5-7.4-17.1-8.2c-2.1-0.3-4.2-1.3-6.6-2.1c0.8,1,1.3,1.8,2.1,2.6c-7.6-3.7-14.7-7.9-21.8-11.9c-1-0.3-1.8-1.3-2.6-1.8
		l-7.1-4.7c-3.9,0.8-5.5-0.8-6.6-1.3c-7.1-5-15.2-8.2-22.1-13.7c-2.9-2.4-6.3-4-8.4-6.9c-3.7-4.5-8.2-7.6-13.2-10.3
		c-3.9-2.1-7.6-4.5-11.3-6.8c-1.9-1.3-3.7-2.9-3.7-5.8c0-1.8-0.8-3.7-3.2-2.6c-1-1.6-2.1-3.4-3.4-4c-3.2-1.3-5.3-3.7-7.6-5.8
		c-2.4-2.1-4.2-5-7.1-6c-5.3-2.1-8.4-6.6-11.6-10.3c-7.4-8.7-14-18.2-20.8-27.4c-0.5-0.8-1.6-1.3-2.4-2.1c1,2.9,2.4,5.3,3.7,7.9
		c-2.6-1-4.5-2.9-6-4.7c-0.3,0.3,18.1,30.6,18.1,30.6c1.6,2.4,2.9,4.7,4.5,7.1c-4,0.3-6.6-1.9-7.9-4.2c-2.4-4.2-5-6.8-10.3-6.3
		c-0.5-1.9-1.1-4-1.3-5.8c-1.1,0-1.9,0-3.7-0.3c3.7,5.8,6.8,10.8,10.3,16.6c-1.3-0.8-2.1-1.3-2.7-1.6c4.7,5,8.1,11.3,14.2,14.5
		c1.3,6,8.2,8.9,9.7,14.7c-1.3-0.3-2.4-0.5-3.7-0.8c-2.1-2.6-4.5-5.3-6.8-8.2c0.5,1.8,1.3,3.4,2.4,4.7c3.2,3.9,6.1,7.9,9.7,11.3
		c1.3,1.3,3.2,1.9,3.2,4.2c2.1,1.1,2.9,1.3,3.7,1.3c0.5,1.6-0.2,4,2.9,3.4c2.1,3.9,4.2,3.9,7.1,2.6c3.4,3.4,5.3,3.7,7.6,1.6
		c0,1.3,0.3,2.6,0.3,3.7c1-0.5,0.8-1.3,0.8-2.6c1.3,1,2.1,1.6,2.6,2.1c2.6,3.7,5,7.1,8.7,10c5,4.2,9.5,8.7,14.2,12.7
		c9.2,7.6,19.5,14,29.8,19.8c12.6,7.1,24.8,14.8,37.6,21.6c15.5,8.2,32.1,13.7,49.2,17.7c6.3,1.3,12.4,2.6,18.7,4.2
		c5.5,1.6,11,4,16.6,5.3c8.4,1.8,17.1,3.4,25.5,5c1.8,0.3,3.7,0.5,5.8,0.8c2.4,0.5,5.2-0.5,5.8,0.3c1.3,2.1,2.4,1,4,0.8
		c1.8-0.5,4-0.5,6-0.5c7.4,0.3,14.5,1.8,21.8,1.3c1.6,0,4-1.3,5.3,1.3c2.4-1.1,3.7-1.1,4.7-1.3c0.3,2.4,0,2.4-0.5,2.6
		c-0.5,0.3-1.3,0.5-2.4,1.3c9.5,1.8,18.4,2.1,26.3,0c13.7,1,25.5-0.5,36.9-4.5c1,1.3,1.8,3.2,3.4,0.5c0.5-0.8,1.8-1.1,2.9-1.3
		c2.4-0.5,5.3-1.6,7.4-0.8c2.4,0.8,3.2-1.3,5-1.3c3.2,0,6.1-0.3,9-0.8c1.6-0.3,3.2-1.1,5-1.6c-2.1-1.1-4.2-1.3-5.8-1.3
		c3.2-1.6,6.1-2.9,9-4.2c-0.5,0.8-1.1,1.8-2.1,1.8h3.7c-0.8,0-1.9,2.4-3.2,3.9c9.5-2.4,18.1-4.5,26.6-6.6c-2.9-5.5,3.1-3.7,5.3-6.8
		c-2.6,0.8-5.3,1.6-7.9,2.1c9-4.5,18.2-8.4,27.1-12.4c-1.3,1.6-2.9,2.4-5.2,3.7c1.6,0.3,2.6,0.3,3.4,0.5c4.2,1.3,3.2-2.6,4.5-5
		c5,0,7.1-0.8,9.5-1.6c2.6-0.8,5.3-1.6,7.9-2.6c4.2-1.8,8.2-4.2,12.4-6.3c0.8-0.3,2.1,0,3.2,0c2.9-1.9,3.9-3.4,4.7-3.2
		c3.7,0.5,6.3-0.8,7.4-4.2c1.8-1.3,3.2-2.4,4.5-3.2c5.8-3.2,11.3-6.3,17.1-9.5c2.1,0,3.2,0,3.7-0.3c3.4-1.6,6.6-3.4,9.7-5.3
		c-0.8-0.3-2.6-1.3-2.6-1.3c2.6-0.5,3.4-0.8,5-1.3c6.3-7.4,15-12.4,21.6-18.2c2.9-0.3,2.9-1.1,2.9-1.6c1-1.3,2.1-2.9,3.4-4
		c5.8-5.3,12.1-9.8,17.4-15.3c7.6-7.7,15-15.6,21.8-23.7c6.3-7.4,12.6-14.7,17.9-22.9c7.4-11.3,13.7-22.9,20.3-34.8
		c4.7-8.4,9-16.9,13.7-25.3c0.5-0.8,1.6-1.8,2.4-1.8c7.1-0.8,14.2-1.3,21.1-2.1c1.6-0.3,3.4-1.3,5-2.1c-0.8-1.3-1.3-2.9-2.1-4.2
		c-1.1-1.6-2.6-2.9-3.7-4.5c-1-1.3-1.8-2.9-2.6-4.5c-0.8-1.3-1.6-2.4-2.4-3.7c-1.6-2.9-3.2-5.8-4.5-8.9c-0.3-0.8-0.8-2.1-0.5-2.9
		c4.7-10.3,6.6-21.3,11.1-31.6c4.5-10.5,5.8-22.4,7.9-33.7c1.8-10.8,2.9-21.6,4.2-32.4c0.8-7.6,1.8-15,2.1-22.7
		c1.6-12.1,1.1-23.5,0.8-34.8C788.2,360,787.6,349.7,787.1,339.7L787.1,339.7z M126.9,664c-1.8-2.1-3.4-4.5-5.3-6.6l0.8-0.8
		c2.9,3.2,5.8,6.3,8.7,9.8C129.5,665.6,127.6,665.1,126.9,664z M131.1,666.4c0.8-0.3,1.6-0.3,2.4-0.5c0.8,1.3,1.3,2.9,2.1,4.5
		C131.9,670.1,130,668.5,131.1,666.4L131.1,666.4z M404.8,775.3v-0.8c5-0.5,9.7-1,14.7-1.6v0.8C414.5,774.5,409.8,775,404.8,775.3
		L404.8,775.3z M471.1,768.4c-3.7,0.8-7.6,1.3-11.3,1.9c-1.3,0.3-2.9,1.6-3.4-0.8c-0.5,0.3-1.1,0.3-1.6,0.5c1.3,3.9,4.5,0.8,7.1,2.4
		c-5.8,0.8-11.3,1.3-16.8,2.1v-0.5c1.6-0.3,3.4-0.5,5-0.8v-0.8c-2.6-0.3-5.3-0.5-7.9-0.5c-0.8,0-1.8,1.1-2.6,1.3
		c-1.1,0.3-2.1,0.5-3.4,0.5c-4.5,0.3-8.9,0.3-13.2,0.5c-0.3,0-0.8-0.3-1.1-0.3v-0.8c17.6-2.4,35-4.7,52.6-7.1
		c0.3,0.5,0.3,1.1,0.5,1.6C473.4,767.6,472.4,768.2,471.1,768.4L471.1,768.4z M475,765.8c6.1-0.8,11.6-1.3,17.4-2.1
		C480.3,767.1,476.3,767.6,475,765.8L475,765.8z M245.8,233.7c8.4-11.6,17.1-23.2,25.5-35.1c2.6-3.4,4.7-7.1,7.4-10.6
		c0.8-1.1,1.9-1.6,3.2-2.6l-0.3-0.5c1-1.3,2.1-2.4,2.6-3.4c1.3-2.1,2.1-4.5,3.2-6.8c0.3-0.5,1-1,1-1c3.7,1.8,3.7-2.1,5-3.4
		c2.4-2.6,4.7-5.5,6.8-8.2c1.6-2.1,3.2-4,4.5-6.3c0.3-0.8-0.5-2.1-0.8-3.2h-0.8c0.8-0.5,1.6-1.3,2.4-1.8c0.3,0,0.3,0,0.5-0.3
		c1.6-2.4,3.2-4.8,4.7-6.9c3.1-4.2,6.6-8.4,10.2-12.1c-0.5,1.3-1,2.6-1.6,3.7c0.3,0,0.3,0.3,0.5,0.3c3.2-4.2,6.6-8.2,9.7-12.4
		c-0.3-0.2-0.5-0.5-0.8-0.5c-1.3,1.3-2.4,2.6-3.7,4c-0.3-0.3-0.5-0.5-0.8-0.5c2.7-3.4,5.3-6.8,7.9-10.8c0.5,0.8,1.1,1.8,2.1,4
		c1.1-2.6,2.1-4.5,2.9-6.3c-0.8,0.8-1.8,1.6-2.6,2.4l-0.8-0.8l4.7-7.1c5-7.1,10-14.5,15-21.6c1.9-2.6,4.2-4.7,5.8-7.4
		c5-10,12.9-17.9,18.9-27.1c1.3-1.8,3.2-3.4,4.7-5c1.3-1.6,2.4-1.1,3.4,0.3c7.1,9,14.2,18.2,21.3,27.1c5.3,6.6,10.5,12.9,15.5,19.8
		c6,8.4,11.8,16.9,17.9,25.3c6.8,9.8,13.7,19.5,20.3,29.5c10,14.8,19.5,29.5,29.5,44.3c7.4,10.8,14.7,21.4,21.8,32.2h-13.4
		c-12.4-0.2-25-1.3-37.4-0.8c-16.8,0.8-33.9,2.6-50.8,4c-21.3,1.8-42.9,2.1-64.2,2.1c-7.7,0-15.3,1.1-22.9,1.6
		c-9.2,0.5-18.2,1.1-27.4,1.3c-10.8,0.5-21.3,0.8-32.1,1.1C258.7,234,252.4,233.8,245.8,233.7L245.8,233.7z M547.6,354.9v2.4
		c-0.3,0-0.5,0.3-1,0.3c-1-3.7-2.1-7.7-3.4-11.4c-2.6-7.6-5.5-15.3-10.3-22.1c-5.3-7.4-10-15-15.3-22.6c-1.3-1.9-3.2-3.4-4.7-5
		c-5.5-6.1-11.1-12.4-18.2-16.9c-10.5-6.6-21.3-12.1-32.9-16.9c-3.2-1.3-6-2.9-9.2-4.7h6.3l45-0.8c9.7-0.2,19.2-0.2,29-0.8
		c2.4,0,3.7,0.8,5,2.9c2.4,3.9,4.7,7.9,7.4,11.9c0.3,0.5,0.8,1.3,0.8,2.1c0,5.8,0,11.9,0.3,17.7c0.3,6.1,0.8,11.9,1,17.9
		c0,6.1-0.5,12.4-0.3,18.7C547.3,336.5,547.6,345.7,547.6,354.9L547.6,354.9z M264.5,266.7c12.4-0.5,24.2-1.3,36.3-1.9
		c9.4-0.5,19.2-0.8,28.7-1.3c3.9-0.2,7.6-0.5,11.6,0c-4.2,2.1-8.4,4.2-12.1,6.9c-4.7,3.2-9.2,7.4-14,10.8c-4.8,3.4-9,7.6-12.9,12.1
		c-5,6.1-10.5,11.3-15.8,17.1c-3.7,4.2-7.9,8.2-11,12.6c-4.5,5.8-8.4,12.1-12.6,18.7C263.9,316.7,265.5,292,264.5,266.7L264.5,266.7
		z M436.3,520.2c-8.4,2.1-17.1,4.5-25.8,5.5c-7.4,1.1-15,0.8-22.6,0.8c-6.9,0-13.4-0.3-20.3-0.8c-7.6-0.8-15.3-1.6-22.6-5
		c-6.3-2.9-12.9-5.5-19.2-8.7c-6.3-3.2-12.6-6.8-17.4-12.6c-3.4-4.2-8.1-7.6-12.4-11.3c0.8,3.2,2.6,5.8,5.5,7.6
		c-1.3,1.6-3.2,0.8-5.8-3.4c-0.8,0.5-1.6,0.8-2.1,1.1c0.8-1.9,1.6-3.7,2.4-5.3c-1-2.1-2.4-4.5-3.4-6.6c-2.1-3.4-4.2-7.1-6.1-10.5
		c-0.5-0.8-0.5-1.6-1-2.4c-1.3-1.6-2.6-3.2-3.7-4.8c-2.1-3.1-3.9-6.6-6.6-9.7c0,0.8,0.3,1.6,0.3,2.6c-0.3,0-0.5,0.3-0.5,0.3
		l-5.5-13.4c-0.3,0-0.3,0-0.5,0.3l4.7,17.4c-0.3,0-0.5,0.2-0.8,0.2c-0.8-1-1.6-2.1-2.1-3.4c-0.5-2.1-2.1-2.1-3.4-1.3
		c-0.8,0.5-1.3,2.4-1.1,3.2c1.8,4.5,4,9,6.1,13.4c0.5,1.6,1,2.9,1.8,4.5c0.3,0.5,1.1,1,1.1,1.8c1.1,2.1,1.8,4.2,3.2,6.1
		c2.4,3.2,5,6.3,7.4,9.5c2.4,3.2,4.5,6.6,6.6,9.7c0.3,0.5,1,0.5,1.3,0.8c1.3,4,5.8,6.8,9,5.3c0.8,6.1,7.4,8.2,10,14
		c-3.2-1.3-5.5-2.4-7.6-3.4c-0.3,0.3-0.3,0.5-0.5,1.1c3.2,1.6,6.3,3.2,9.2,5c2.6,1.6,5.3,3.2,7.6,5c3.2,2.9,6.9,4.5,11.3,5.5
		c-0.2-0.8-0.5-1.1-0.5-1.1c7.4,3.4,15,7.1,20.8,10c-27.4,0.5-56.6,1.1-86.9,1.6c0-5-0.3-9.8-0.3-14.8c0-2.1,0.5-4,0.2-6.1
		c-0.8-12.1-0.8-24.2-2.4-36.1c-1.6-12.6-1.6-25-1.3-37.7c0.2-6.8-0.3-13.9-0.5-20.8c0-9.2,0-18.2,0.3-27.4c0-1.3,0.5-2.4,1.1-3.7
		h0.8c0.2,0.5,0,1.3,0.5,1.6c0.8,0.8,2.1,2.1,2.6,1.8c1.6-1.1,3.9-2.1,4.5-3.7c1.3-3.1,1.8-6.6,1.8-9.7c0-2.4,1.1-3.9,2.1-5.5
		c0.5-0.8,0.8-1.6,1.3-2.6c-1.1-0.8-2.1-1.3-3.4-2.4c1.1-2.9,0.8-6.3,4.8-7.9c0.5-0.3,0.5-1.6,0.8-2.4c0.2-2.1,0.5-4.5,0.8-6.6
		c0.5,0.8,0.8,1,1.3,1.6c0.3-0.5,0.5-0.8,0.5-0.8c0-1-0.3-3.1,0-3.1c3.2-0.5,1.8-4,3.4-5.5c0.2-0.3-0.3-1.1-0.3-1.6
		c0-0.5,0-1.3,0.3-1.3c3.7-0.8,3.1-4.7,5.5-6.6c0.8-0.5,1-1.3,2.1-2.6c2.1,3.7-1.6,5.5-1.8,8.2c4.5-2.6,5.8-9,3.1-10.8
		c1-0.8,2.1-1.8,2.9-2.9c2.9-3.2,6-6.1,8.7-9.2c1.8-2.4,2.9-5.3,4.7-7.6c1.1-1.3,3.2-2.4,4.7-3.2c4.7-2.6,9.2-5.5,12.1-10
		c0.5-0.5,1.3-1,2.1-1.6c0.8-0.5,2.4-0.5,2.6-1.3c0.3-0.5-0.5-1.8-1-2.6c1-0.5,2.1-1.6,4.2-2.6c-0.8,1.6-1,2.6-1.6,3.7l1.3,1.3
		c2.4-1.8,6.1-3.9,8.4-5.5c0-0.2-1.3-1.3-1.3-1.3c-1.6,0.8-3.9,2.1-6.3,3.2c0.5-0.8,0.5-1.3,0.8-1.6c3.7-2.4,7.4-4.7,11.3-6.6
		c9.2-4.2,18.4-8.4,27.6-12.4c1.6-0.8,3.7-0.3,5.5-0.3c0.8,0,1.3,0,2.1-0.3c4.2-1.3,8.4-2.6,12.6-3.7c1.8-0.5,3.9-0.8,5.8-0.8
		c7.9,0.2,15.8,0.2,23.7,0.8c3.4,0.3,6.6,1,9.7,2.1c3.9,1.3,8.1,3.2,11.8,5c4.5,2.4,8.7,5,12.9,7.9c7.6,5,14.7,10.5,22.4,15
		c7.4,4.5,13.2,10.5,17.9,17.4c5.8,8.2,12.4,15.5,15,25.5l3.9,17.4c0.8,3.2,2.6,6.3,1.9,10c-1.3,6.6-2.4,13.5-3.4,20
		c-0.5,2.6-1,5.3-0.8,7.9c0.5,8.2-2.6,15.3-5.8,22.7c-1.1,2.4-2.6,4.8-4,7.4c0.3,0.3,1.8,1.1,2.1,1.1l2.4-4.7c0.3,0,0.3,0,0.5,0.3
		c-1.3,3.7-2.4,7.6-3.7,11.3c-3.1,8.2-6.3,16.6-10.2,24.5c-2.1,4.5-5.8,8.2-8.4,12.4c-2.6,3.7-4.7,7.6-7.4,11.1
		c-2.4,2.9-4.7,5.8-7.9,7.9c-7.1,5.3-14.5,10.5-22.1,14.8C447,517.3,441.5,518.9,436.3,520.2L436.3,520.2z M296,506.2l-0.3,0.3
		c-0.6-0.3-1.3-0.5-1.9-1.1l-6.3-9.5c-0.5-0.8-0.8-1.6-0.5-2.6C290,497.8,292.9,502,296,506.2L296,506.2z M459.8,542.3
		c11.8-5,21.6-12.1,30.5-20.3c1.3-1.3,2.6-2.6,4.2-3.7c11.1-6.8,19.2-16.3,26.6-26.9c8.4-12.1,14-25.8,20.8-38.7
		c0.5-1.1,1-2.1,1.6-2.9c-0.5,30,2.9,59.5,6.8,89.3C520.5,540.2,490.3,541.2,459.8,542.3L459.8,542.3z M726.6,534.4
		c-0.3,0.5-0.8,1.1-1.1,1.6c-0.3-0.5-0.3-1.3-0.5-2.4c-1.6,4.2-5,2.1-7.4,2.1c-14.2,0.3-28.7,0.3-42.9,0.3c-13.7,0-27.6,0-41.3,0.2
		c-4.5,0-9.2,1-13.7,1.3c-10.8,0.5-21.6,0.8-32.4,1c-0.8,0-1.6-1.3-2.9-2.4c-0.3,0.5-0.8,1.3-1.6,2.4c-0.3-0.5-0.8-1-1.3-1.8
		c-0.3,0.8-0.5,1.6-0.8,2.1H580c-0.5-3.7-1.6-7.1-1.6-10.8c0-7.9,0.8-15.8,1-23.7c0.3-3.7,0-7.1,0-10.5c1.1,0.8,1.9,1.3,2.9,2.1
		c0.5-1,1-1.8,1.6-2.6c0,0-0.5-0.3-1.1-0.8c0.5-0.3,1-0.8,1-1.1c0.3-0.8,0.8-1.6,0.8-2.1c0-1.9-0.5-3.4-0.8-5c0.3,0,0.5,0,0.8-0.3
		l1.6,7.9h0.8c-1.1-1.8,2.4-3.4-0.5-5.5c-0.3-0.3,0.3-1.9,0.3-2.6c-0.8-1.6-1.3-3.1-2.1-5.3c0.3-0.3,1-0.5,1.8-0.8
		c-1-0.5-1.8-1-2.6-1.3c2.6-2.4,2.6-3.7,0.3-6.3c0.5-0.3,1.1-0.3,1.1-0.5c0-2.4,0-4.8-0.5-7.1c-0.5-2.7,0.8-5.8-3.2-7.4
		c0.3,0.8,0.5,1.3,1,2.1c0,0-0.8,0.3-1.6,0.8c-3.4-3.2-1.3-7.4-2.1-12.1c1.8,0.5,3.2,1.1,4.5,1.6c-0.5-1.9-1.8-4-2.6-6.3h-1.1v-17.4
		c0,0.3,1.8,0.3,2.9,0.5c0-0.3,0.2-0.5,0.2-0.8c-0.8-1-1.9-2.1-2.9-3.4l0.5-0.5c-2.1-2.6-1-6.3-1-7.1V394c2.6,2.6-1.3,6.1,2.6,7.6
		V399h-0.3c-0.3-4-0.3-7.9-0.5-11.9h-0.5c-0.3,0.5-0.3,0.8-0.5,1.3h-0.5l1.6-63c2.6,3.4,5.5,6.6,7.4,10
		c6.1,11.1,13.9,20.6,21.3,30.6c6.3,8.7,12.1,18.2,17.9,27.1c7.1,10.8,13.9,21.6,21,32.4c5.3,8.2,10.8,16.4,16.3,24.3
		c5,7.1,10.3,14,15.5,20.8c4.5,6.1,9.2,12.1,13.7,18.2c5.3,7.4,10.5,14.8,15.8,21.9c2.6,3.7,5.5,7.4,8.4,11.1c1.6,2.1,4,3.7,5.5,5
		c-0.2,0-0.5,0-1-0.3c0.8,1,1.3,1.8,1.8,2.4C727.9,530.5,728.1,532.1,726.6,534.4L726.6,534.4z M740,468.5v-1.9
		C740,467.2,740.3,468,740,468.5L740,468.5z M748.9,352.3c-0.3,0-1.8-1.6-2.1-1.9c-0.3,0.8,0,1.6-0.5,2.6c-0.3-0.8-2.1-0.5-2.1-1.3
		c-0.3,3.7,1.6,7.4,1.3,11.1c0.8-0.5,3.9-0.8,4.7-1.6c0.3,0.3,0.8,0.5,1.1,0.5c-5.3,4-3.9,7.9-1.6,12.4c0.5,1,2.1,3.1,0.5,5.3
		c-0.5,0.5,0.3,2.1,0.5,3.4h0.8v0.5l-2.4,0.8c-0.5-0.8-3.7-2.4-3.7-3.7V394c2.6,0.8,2.6,4.5,3.7,6.3c0.5-0.8,0.8-1.3,1.1-2.1
		l0.3,0.2c-0.3,1.6-0.5,3.2-1.1,4.8c-0.5,2.4-1,4.5-1.3,6.8c0,0.3,0.5,0.8,0.5,1.1c-2.9,6.6-1.3,14-2.4,20.8c-0.8,5,0,10.3-0.5,15.6
		c-0.5,4.5-1.6,9.2-2.6,13.7c-0.3,0.8-0.8,1-2.1,1.6c0.5-3.2,0.3-5.3-0.3-8.2c-0.3,0-3.7-1.8-4-1.8c0,3.7,2.1,8.7,2.9,12.9
		c-0.8-0.3-3.9-2.1-4.2-2.1c-0.5,3.2-0.5,7.4-0.8,10.8c-0.3,2.6-2.6,5-2.9,7.9c0,1.6,1.8,2.6,1.6,5.3h2.1c0-5.3,2.4-10,2.4-15.5h0.8
		c0.3,0.5,1.1,1.1,0.8,1.3c-0.5,2.9-1.6,6.1-1.3,9c0,1.6,1.3,3.2,0.8,5c-0.5,1.6-0.8,3.2-1.1,5.5c-0.3-1.3-0.5-1.8-0.5-2.6
		c-0.3,0-2.6-0.3-2.9-0.3c-0.3,1.6,1.8,3.2,1.6,4.5c-0.3,0.3-0.5,0.3-1,0.5l-8.7-12.7c-6.9-10-13.7-20-20.5-30.3
		c-1.8-2.6-3.4-5.3-4.8-7.9c-8.2-14-17.1-27.4-27.1-40.3c-7.6-9.7-13.7-20.3-20.8-30.6c-6.6-9.7-13.1-19.2-19.7-29
		c-2.4-3.1-5.3-6-7.4-9.5c-6.8-10.8-12.9-21.9-19.7-32.7c-5.8-9-12.1-17.7-18.2-26.4c-2.1-2.9-4.2-6.1-6.3-9.2
		c-0.3-0.5-0.5-1-0.5-1.8c-0.5-5.8-1.1-11.6-1.3-17.1c0-5.3,0.5-10.5,0.5-16.1v-4.7c0-1.3,0.2-2.4,0.2-3.7c0.2-0.2,0.5-0.8,0.8-1
		c-7.6,0-15.5-0.3-23.2,0c-5,0.2-7.6-1.9-11-5.5c-10-11.3-17.4-24.2-26-36.4c-8.2-11.6-16.6-22.9-25-34.3
		c-6.9-9.2-13.7-18.2-20.5-27.4c-7.6-10.5-15-21.1-22.9-31.6c-9.5-12.6-19.2-25.3-29-37.9c-4.5-5.8-9.5-11.3-14.5-17.4
		c3.4,0.5,6.6,1.1,9.8,1.3l12.6,0.8c9.5,0.8,18.9,1.3,28.4,2.6c7.9,1.1,15.8,2.6,24,4c17.4,2.9,34.5,7.6,51.1,13.2
		c9.7,3.2,19.2,7.4,28.7,11.3c21.3,8.7,41.6,19.2,61.6,30.3c6.3,3.4,10,9,14.7,14c6.8,7.1,13.7,14.2,20.3,21.6
		c7.6,8.7,14.7,17.7,22.1,26.6c6.6,7.9,13.4,15.8,20,23.7c2.1,2.4,3.7,5.3,5.5,7.9c4.2,6.3,9,12.4,12.6,19.2c2.6,5,4.2,10.8,6,16.4
		c2.6,8.2,5.3,16.1,7.9,24.2c1.8,6.1,3.4,12.4,4.7,18.7c1.1,4.2,0.8,8.7,2.1,12.9c1.6,5.6,0,11.6,1.6,17.1c0.2,0.5,0.5,1.3,0.8,1.9
		c1,1,1.8,2.1,0.3,3.7c-0.3,0.3-0.3,1.3,0,2.1c0.5-0.5,0.8-1.1,1.3-1.8c0,0.5,0.2,0.8,0.2,1c0,1-0.3,2.1,0,3.1
		c0,0.5,0.5,1.3,0.8,1.8c0.5-0.5,1.1-0.8,2.1-1.6c2.4,9,2.6,17.9,2.6,27.1c0,8.7,1.6,17.4-2.1,25.8c0.8-2.9-1.1-5.5-0.3-8.2
		L748.9,352.3z"/>
	<path class="st0" d="M580.8,454.8c0.2,0,0.5,0.3,0.5,0.3l-0.3-0.3C581,454.5,581,454.5,580.8,454.8L580.8,454.8z M622.4,715.2
		c-2.9,2.1-5.8,3.9-9.5,4.7c-0.3-0.3-0.3-0.5-0.5-0.8c2.9-1.8,6.1-3.7,9-5.5C621.6,714.1,622.1,714.6,622.4,715.2L622.4,715.2z
		 M129,358.1c2.9-3.7,5.8-7.4,8.9-11c0.2,0.3,2.4,0.8,2.6,1c-2.9,3.7-6.9,8.7-9.7,12.6C130.2,360.2,129.4,358.4,129,358.1L129,358.1
		z M54.2,487.2c-2.1-4.5-4.2-9.2-6.3-13.7c0.3-0.3,2.1-1.1,2.4-1.1c2.9,4.2,4.2,9.2,6.3,13.7C56.6,486.2,54.5,487.2,54.2,487.2
		L54.2,487.2z M121.3,360.7c-1.6,2.4-3.2,5-4.7,7.4c-0.3-0.3-3.2,1-3.4,0.8c1.6-2.4,5.5-6.6,7.1-9
		C120.5,360.2,120.8,360.5,121.3,360.7L121.3,360.7z M594.2,726c0.2,0,0.2-0.3,0.5-0.3c1.8,0.3,3.9,0.5,6,0.5
		C597.3,728.6,595.2,728.4,594.2,726L594.2,726z M121.8,371.8c0.3-0.8,0.8-1.6,1.3-2.4c0.5,0,1.3-0.3,1.3-0.3
		c1.1-1.8,1.1-3.2,2.1-4.7c-0.3-0.3-0.5-0.3-0.8-0.5c-1.6,1.1-3.1,2.4-4.7,3.5c0.5,0.5,0.5,0.8,0.5,1.3c-2.1-0.3-2.9,0.8-4,3.7
		c-0.3,0.8-1.6,1.1-2.9,2.1c-0.3,0.5-0.5,1.9-1,3.2l0.3,0.3c-0.5,0.5-1.3,0.8-1.3,0.8c-1.6,1.6-3.4,2.9-5,4.5
		c-0.3,0.8-0.5,1.6-0.5,2.4c1.9-1.8,5-5.3,7.4-7.4l0.3,0.3c1.1-1.6,1.8-3.2,2.9-4.7c0.2,0.3,0.2,0.5,0.5,0.8
		c-0.8,2.1-1.6,4.5-2.4,6.6c-0.6,0.3-1.3,0.8-1.3,0.5c-1,0.8-1.8,1.8-2.9,2.6l-4.7,3.2c-2.6,2.4-5.3,4.5-8.2,6.9
		c-1.8,2.9-3.7,5.5-5.8,9c3.2-0.8,4,0.5,3.7,3.2c3.7,0.5,4-2.4,5-4.5c0.3-0.5,0.5-1.6,1-1.9c2.4-2.1,5-3.9,7.6-6
		c0.5-0.5,0.5-1.6,0.5-2.4c0-0.3-1.3-0.3-2.1-0.5c2.4-2.6,5.8-7.1,8.2-10c1.3-0.8,2.6-1.9,2.6-2.6c-0.3-2.9,1.6-3.7,3.7-4.7
		C122.1,372.9,121.8,372.1,121.8,371.8L121.8,371.8z"/>
	<path class="st0" d="M127.1,368.9c-1,1.8-2.1,3.4-3.1,5.3l-1.6-0.8c-1,6.1-4.7,11.3-8.4,12.4c1,0.5,2.1,1.1,2.9,0.8
		c0.8-0.3,1.3-1.6,1.8-2.4l7.1-10.3l2.4-4L127.1,368.9L127.1,368.9z M39.5,484.6c1.3,0,2.6,0.3,4.2,0.3c0-1,1.3-0.8,1.3-1.8h0.8
		c0,1.3,0.3,2.4,0.3,3.7h-5.5C40.3,486.5,39.2,484.9,39.5,484.6L39.5,484.6z M37.4,472.5c-0.8-0.8-2.1-1.6-2.1-2.4
		c-0.3-1,0.5-2.4,1.3-3.7c0.5,1.8,0.8,3.4,1.3,5.3C37.6,472,37.4,472.2,37.4,472.5L37.4,472.5z M44,455.6c1,2.7,2.1,5.6,3.2,8.2
		c-0.3,0-1.8,0.8-2.1,1c-1-2.6-2.4-5.5-3.4-8.2C41.9,456.4,43.4,455.6,44,455.6L44,455.6z M629.8,707.5c1.3-0.5,2.9-0.8,5-1.3
		c-2.4,1.8-4.2,3.2-5.8,4.7c-0.3-0.3-0.5-0.5-0.8-0.5C628.7,709.4,629.2,708.6,629.8,707.5L629.8,707.5z M306.3,150.7
		c1.6-1.1,2.9-1.9,4.5-2.9l0.5,0.5c-1.6,2.1-2.9,4.2-4.8,6.9c-0.3-1.8-0.3-2.9-0.5-4.2C305.8,151,306,151,306.3,150.7L306.3,150.7z
		 M383.4,284.1c2.4-1.1,4.7-2.1,7.6-3.4c-0.3,1.6-0.3,2.6-0.3,3.7c-0.8-0.3-1.9-0.5-2.6-0.5c-1.6,0.3-4.5,2.4-5.8,2.6
		C382.1,286.4,383.4,284.3,383.4,284.1L383.4,284.1z M580.8,507.5c0.5,2.6,5.5,4,0.5,6.6c0.8,0.5,1.6,0.8,2.4,1.3
		c0,0.3-0.3,0.8-0.5,1.1c-0.5,0.2-1.6,0.8-2.1,0.5c-0.3,0-0.8-1-0.8-1.6C580.3,513.1,580.5,510.7,580.8,507.5L580.8,507.5z"/>
</g>
</svg>
