<?xml version="1.0" encoding="utf-8"?>
<!-- Generator: Adobe Illustrator 28.0.0, SVG Export Plug-In . SVG Version: 6.00 Build 0)  -->
<svg version="1.1"
	 id="Layer_1" xmlns:sodipodi="http://sodipodi.sourceforge.net/DTD/sodipodi-0.dtd" xmlns:svg="http://www.w3.org/2000/svg" xmlns:inkscape="http://www.inkscape.org/namespaces/inkscape"
	 xmlns="http://www.w3.org/2000/svg" xmlns:xlink="http://www.w3.org/1999/xlink" x="0px" y="0px" viewBox="0 0 389.9 472.4"
	 style="enable-background:new 0 0 389.9 472.4;" xml:space="preserve">
<style type="text/css">
	.st0{fill:#FFFFFF;}
</style>
<g id="Layer_2_00000127735453075218538480000016371779109523468417_">
	<g id="_x23_6ab651ff">
		<path id="path827" class="st0" d="M153.5,0h0.9c8.2,6.1,18.3,9,27.4,13.4c20.9,9.7,42.1,18.6,62.8,28.7
			c-33.5-4.2-68.5-1.4-99.3,12.9c-6.7,3.1-12.5,8.6-20.1,9.2C133.1,42.3,144.5,21.6,153.5,0z"/>
		<path id="path829" class="st0" d="M342.5,95.8c7.2,2.2,14.3,4.2,21.5,6.1c-4.4,16.6-10.3,32.8-14.4,49.5
			c-12.1-5.3-24.6-9.7-36.9-14.6C322.6,123,336.3,111.8,342.5,95.8L342.5,95.8z"/>
	</g>
	<g id="_x23_c67227ff">
		<path id="path832" class="st0" d="M107.1,70.5c5.1-1.6,10.2-4,15.6-4c-3.5,5.7-9,9.6-13.6,14.3c-17.6,17.5-27.9,41.4-30,66.1
			c-0.7,8.1-2.8,16-7,22.9c-9.7-25.8-16.8-52.5-26.4-78.4C65.9,83.5,86.8,77.8,107.1,70.5z"/>
	</g>
	<g id="_x23_4285a7fd">
		<path id="path835" class="st0" d="M294.4,156c7.9-4.5,12.8-12.4,18.4-19.3c12.3,4.9,24.7,9.4,36.9,14.6c8.2,3.4,16.5,6.4,24.8,9.6
			c-6.9,17.7-13.2,35.7-20.8,53.2c-6.6,11.8-11.3,24.6-17.2,36.7c-16.5-22.6-41-37.7-67-47.1C278.1,188.1,285.3,171.5,294.4,156
			L294.4,156z"/>
	</g>
	<g id="_x23_dd3a2eff">
		<path id="path838" class="st0" d="M72.1,169.8c4.3-6.9,6.4-14.8,7-22.9c-2.1,24,2.6,49,15.9,69.2c13.8,22.4,36.8,37.9,60.8,47.5
			c-15.3,17.6-29.3,36.6-46.9,51.9c-11.7,13.7-22.9,27.9-34.7,41.5c-19.1-7.8-38-15.9-57.3-23.2c-5.3-3.5-11.5-5.7-17-8.9v-1.4
			c4.2-5.2,6.5-11.5,9.2-17.5c16.3-35.4,33.3-70.4,49.6-105.8C63.4,190.2,69,180.5,72.1,169.8z"/>
	</g>
	<g id="_x23_432c8cff">
		<path id="path841" class="st0" d="M336.4,250.9c6-12.1,10.6-24.9,17.2-36.7c12.7,54.6,23.5,109.6,36.3,164.2
			c-8.6,2.3-17.3,4.2-26.1,5.7c0.3-2,1-6,1.3-8c-8.8-2.3-17.7-4.4-26.6-6.2C358.1,333.5,358,286.3,336.4,250.9L336.4,250.9z"/>
	</g>
	<g id="_x23_c02d5bff">
		<path id="path844" class="st0" d="M17,333.9c19.2,7.3,38.2,15.4,57.3,23.2c-3.3,4.2-7.8,8.1-8.9,13.5
			c-2.9,13.9,13.5,18.9,21.5,26.8c-25.6-1.7-51.1-4.6-76.7-6.8C13,371.8,12.9,352.5,17,333.9z"/>
		<path id="path846" class="st0" d="M127.5,419.4c26.5,10.1,54.8,15,83.1,15.4c2,0.9,5.9,2.6,7.8,3.4l0,0.7
			c-9.9,10.3-19.9,21.1-27,33.5h-1C170.2,453.8,148.6,436.9,127.5,419.4z"/>
	</g>
	<g id="_x23_6b2e86ff">
		<path id="path849" class="st0" d="M277.1,421.6c25-10.4,48.3-27.7,61.4-51.8c8.9,1.7,17.8,3.9,26.6,6.2c-0.3,2-1,6-1.3,8
			c-4.9,26.2-10,52.4-14.8,78.6c-43.6-7.6-86.9-17.3-130.6-23.8l0-0.7c-2-0.9-5.9-2.6-7.8-3.4C233.1,433.3,256.2,430.8,277.1,421.6
			L277.1,421.6z"/>
	</g>
</g>
<g id="Layer_3">
	<g id="g911">
		<g id="g909">
			<path id="path858" class="st0" d="M206.5,426.1c-23.9,0-47.7-4.4-71.4-13.2c-23.7-8.8-44.9-21.9-63.6-39.5l47-56.6
				c13.1,11.2,27.5,20.3,43.4,27.4c15.9,7.1,31.4,10.6,46.8,10.6c17.2,0,30-3.2,38.4-9.5c8.4-6.3,12.6-14.9,12.6-25.8
				c0-5.6-1.2-10.4-3.6-14.6c-2.4-4.1-6-7.7-10.6-10.9c-4.7-3.2-10.3-6.2-16.8-9c-6.5-2.8-13.7-5.9-21.6-9.2l-47.6-20.2
				c-9.3-3.7-18.4-8.6-27.2-14.6c-8.8-6-16.6-13-23.5-21c-6.9-8-12.4-17.4-16.5-28c-4.1-10.6-6.2-22.7-6.2-36.1
				c0-14.9,3.2-29,9.5-42.3c6.3-13.3,15.3-24.8,26.9-34.7c11.6-9.9,25.3-17.6,41.2-23.2s33.3-8.4,52.4-8.4c21.3,0,42.3,4.1,63,12.3
				c20.7,8.2,38.9,20.2,54.6,35.8l-42,52.1c-12-9.3-23.9-16.5-35.8-21.6c-12-5-25.2-7.6-39.8-7.6c-14.2,0-25.5,2.9-33.9,8.7
				c-8.4,5.8-12.6,13.9-12.6,24.4c0,5.6,1.4,10.4,4.2,14.3c2.8,3.9,6.7,7.5,11.8,10.6c5,3.2,10.9,6.2,17.6,9
				c6.7,2.8,14,5.9,21.8,9.2l47,19c22.4,9,40,21.3,52.9,37c12.9,15.7,19.3,36.4,19.3,62.2c0,15.3-3.1,29.8-9.2,43.4
				c-6.2,13.6-15.1,25.6-26.9,35.8c-11.8,10.3-26.2,18.5-43.4,24.6C247.6,423,228.1,426.1,206.5,426.1L206.5,426.1z"/>
		</g>
	</g>
</g>
</svg>
