<svg xmlns="http://www.w3.org/2000/svg" xmlns:xlink="http://www.w3.org/1999/xlink" id="Layer_1" x="0" y="0" version="1.1" viewBox="0 0 800 800" style="enable-background:new 0 0 800 800" xml:space="preserve"><style type="text/css">.st0{opacity:.96;fill:#fff;enable-background:new}</style><path d="M0,65.5v669C0,770.7,29.3,800,65.5,800h669c36.2,0,65.5-29.3,65.5-65.5v-669C800,29.3,770.7,0,734.5,0h-669	C29.3,0,0,29.3,0,65.5z M435.4,624c0,77.9-45.6,113.3-112.2,113.3c-60.1,0-95-31.1-112.8-68.7l0,0l61.2-37.1	c11.8,20.9,22.6,38.7,48.3,38.7c24.7,0,40.3-9.7,40.3-47.2V367.3h75.2L435.4,624L435.4,624z M613.1,737.3	c-69.8,0-114.9-33.3-136.9-76.8l0,0l61.2-35.4c16.1,26.3,37.1,45.6,74.1,45.6c31.2,0,51-15.6,51-37.1c0-25.8-20.4-34.9-54.8-49.9	l-18.8-8.1c-54.2-23.1-90.2-52.1-90.2-113.3c0-56.4,43-99.4,110.1-99.4c47.8,0,82.2,16.7,106.9,60.1l-58,37.3	c-0.2,0.2-0.6,0.1-0.7-0.2c-12.8-22.8-26.7-31.7-48-31.7c-22,0-36,14-36,32.2c0,22.6,14,31.7,46.2,45.6l18.8,8.1	c63.9,27.4,99.9,55.3,99.9,118.1C737.7,700.2,684.5,737.3,613.1,737.3z" class="st0"/></svg>