<?xml version="1.0" encoding="utf-8"?>
<!-- Generator: Adobe Illustrator 28.0.0, SVG Export Plug-In . SVG Version: 6.00 Build 0)  -->
<svg version="1.1" id="Layer_1" xmlns="http://www.w3.org/2000/svg" xmlns:xlink="http://www.w3.org/1999/xlink" x="0px" y="0px"
	 viewBox="0 0 54 33" style="enable-background:new 0 0 54 33;" xml:space="preserve">
<style type="text/css">
	.st0{fill-rule:evenodd;clip-rule:evenodd;fill:#FFFFFF;}
</style>
<path class="st0" d="M27,0c-7.2,0-11.7,3.6-13.5,10.8c2.7-3.6,5.9-4.9,9.5-4.1c2.1,0.5,3.5,2,5.1,3.7c2.6,2.7,5.7,5.8,12.4,5.8
	c7.2,0,11.7-3.6,13.5-10.8c-2.7,3.6-5.8,4.9-9.5,4.1c-2.1-0.5-3.5-2-5.1-3.7C36.8,3.1,33.7,0,27,0z M13.5,16.2
	C6.3,16.2,1.8,19.8,0,27c2.7-3.6,5.8-5,9.4-4c2.1,0.5,3.5,2,5.1,3.7c2.6,2.7,5.7,5.8,12.4,5.8c7.2,0,11.7-3.6,13.5-10.8
	c-2.7,3.6-5.8,5-9.5,4c-2.1-0.5-3.5-2-5.1-3.7C23.3,19.3,20.2,16.2,13.5,16.2z"/>
</svg>
