<?xml version="1.0" encoding="utf-8"?>
<!-- Generator: Adobe Illustrator 28.0.0, SVG Export Plug-In . SVG Version: 6.00 Build 0)  -->
<svg version="1.1" id="Layer_1" xmlns="http://www.w3.org/2000/svg" xmlns:xlink="http://www.w3.org/1999/xlink" x="0px" y="0px"
	 viewBox="0 0 512 512" style="enable-background:new 0 0 512 512;" xml:space="preserve">
<style type="text/css">
	.st0{fill:#ffff;}
</style>
<path class="st0" d="M462,0H50C22.4,0,0,22.4,0,50v412c0,27.6,22.4,50,50,50h412c27.6,0,50-22.4,50-50V50C512,22.4,489.6,0,462,0z
	 M297,284.1h-64.2V467h-50.9V284.1H118V243h179V284.1z M462.9,434.6c-4.7,8.5-11.2,15.4-19.3,20.7c-8.1,5.3-17.6,9-28.4,11.3
	c-10.8,2.3-22.2,3.4-34.2,3.4c-12.3,0-24-1-35.1-3.1s-20.7-5.2-28.9-9.4v-50.1h0c9.1,7.6,18.9,13.3,29.6,17.1
	c10.6,3.8,21.4,5.7,32.2,5.7c6.4,0,11.9-0.6,16.7-1.7c4.7-1.1,8.7-2.7,11.9-4.8c3.2-2,5.6-4.4,7.1-7.2c1.6-2.8,2.3-5.8,2.3-9
	c0-4.4-1.3-8.3-3.8-11.7c-2.5-3.4-5.9-6.6-10.3-9.5c-4.3-2.9-9.5-5.7-15.4-8.4c-5.9-2.7-12.4-5.5-19.2-8.3
	c-17.5-7.3-30.6-16.2-39.2-26.8c-8.6-10.5-12.9-23.3-12.9-38.2c0-11.7,2.3-21.7,7-30.1c4.7-8.4,11.1-15.3,19.2-20.7
	c8.1-5.4,17.5-9.4,28.1-12c10.6-2.6,21.9-3.8,33.8-3.8c11.7,0,22,0.7,31.1,2.1c9,1.4,17.3,3.6,25,6.5v46.8
	c-3.8-2.6-7.9-4.9-12.3-6.9c-4.4-2-9-3.6-13.7-4.9c-4.7-1.3-9.4-2.3-14-2.9c-4.6-0.6-9.1-0.9-13.2-0.9c-5.7,0-11,0.5-15.7,1.6
	c-4.7,1.1-8.7,2.6-11.9,4.6c-3.2,2-5.7,4.4-7.5,7.1c-1.8,2.8-2.7,5.9-2.7,9.3c0,3.8,1,7.1,3,10.1c2,3,4.8,5.8,8.5,8.4
	c3.7,2.7,8.1,5.3,13.3,7.8c5.2,2.6,11.1,5.2,17.7,7.9c9,3.8,17,7.7,24.2,12c7.1,4.2,13.3,9,18.4,14.3c5.1,5.3,9,11.4,11.7,18.2
	S470,394,470,403C470,415.6,467.6,426.1,462.9,434.6z"/>
</svg>
