<?xml version="1.0" encoding="utf-8"?>
<!-- Generator: Adobe Illustrator 28.0.0, SVG Export Plug-In . SVG Version: 6.00 Build 0)  -->
<svg version="1.1" id="Layer_1" xmlns="http://www.w3.org/2000/svg" xmlns:xlink="http://www.w3.org/1999/xlink" x="0px" y="0px"
	 viewBox="0 0 256 256" style="enable-background:new 0 0 256 256;" xml:space="preserve">
<style type="text/css">
	.st0{fill:#FFFFFF;}
</style>
<path class="st0" d="M77.5,39c-28.8,1-46.7,2.7-53.2,5.2C17,46.9,9.9,53.6,6.7,60.7C1.4,72.5,0.5,82.2,0.5,128
	c0,35.3,0.3,43,1.8,51.5c2.3,13,5.7,20.4,11.9,26c9.4,8.4,17.6,9.8,69.8,11.6c46.5,1.6,115.1,0.1,138.8-3.1
	c17.5-2.4,26.8-12.5,30.8-33.5c1.4-7.2,1.8-16.5,2.2-46c0.4-38.9-0.4-52.6-3.9-66.2C248,52.8,238.3,44.1,222.8,42
	C200.7,39,121.5,37.4,77.5,39z M133.7,103.6c42.8,22.3,40.9,21.2,39.2,22.9C171,128.2,97.7,166,96.2,166c-0.9,0-1.2-9.8-1.2-40.5
	C95,90.2,95.2,85,96.5,85C97.3,85,114.1,93.4,133.7,103.6z"/>
</svg>
