<svg xmlns="http://www.w3.org/2000/svg" xmlns:xlink="http://www.w3.org/1999/xlink" id="Layer_1" x="0" y="0" version="1.1" viewBox="0 0 256 256" style="enable-background:new 0 0 256 256" xml:space="preserve"><style type="text/css">.st0{fill-rule:evenodd;clip-rule:evenodd;fill:#fff}</style><g><circle cx="48.5" cy="180.3" r="7.4" class="st0"/><path d="M128,0C57.3,0,0,57.3,0,128s57.3,128,128,128s128-57.3,128-128S198.7,0,128,0z M173.8,70.1 c16.9,0.2,29.6,5.7,35.6,16.1c8.2,14.2,2.2,34.4-14.8,54.5c0,0,0,0,0,0c-1,1.1-2.6,1.2-3.8,0.3c-1.1-1-1.2-2.6-0.3-3.8 c15.7-18.6,21-36.6,14.2-48.4c-4.9-8.5-15.9-13.3-31.1-13.5c-1.4,0-2.6-1.2-2.6-2.7C171.1,71.3,172.3,70.1,173.8,70.1z M127.6,28.9 c7,0,12.8,5.7,12.8,12.8c0,0.2,0,0.4,0,0.6c21.1,10.9,35.8,48.2,35.8,91.2c0,17.7-2.5,34.7-7.1,49.4h0c0,0,0,0,0,0.1 c-0.5,1.4-2,2.2-3.4,1.7c-1.4-0.5-2.2-2-1.7-3.4c4.4-14.2,6.8-30.7,6.8-47.8c0-40.5-13.5-75.4-31.9-85.9c-2.1,4.1-6.4,6.9-11.3,6.9 c-7,0-12.8-5.7-12.8-12.8C114.9,34.6,120.6,28.9,127.6,28.9z M45.7,86.1c8.2-14.2,28.8-19.2,54.8-14.4c1.4,0.3,2.3,1.6,2.1,3.1 c-0.2,1.5-1.6,2.4-3.1,2.2c-24-4.4-42.4,0-49.2,11.8c-5,8.7-3.5,20.8,4.2,34.3c0,0,0,0.1,0.1,0.1c0.7,1.3,0.2,2.9-1.1,3.6 c-1.3,0.7-2.9,0.2-3.6-1.1C41.4,110.7,39.6,96.7,45.7,86.1z M48.5,193c-7,0-12.8-5.7-12.8-12.8c0-4.8,2.7-9,6.6-11.2 c-1.9-23.9,23.1-55.8,61-77.7c15.7-9.1,32.1-15.5,47.5-18.8c0,0,0.1,0,0.1,0c1.4-0.3,2.8,0.7,3.1,2.1c0.3,1.4-0.7,2.8-2.1,3.1 c-14.8,3.2-30.7,9.4-46,18.2c-35.7,20.6-59.3,50.3-58.4,71.5c0.3,0,0.6,0,0.9,0c7,0,12.8,5.7,12.8,12.8 C61.3,187.3,55.5,193,48.5,193z M129.6,142.5c-5,1.1-9.9-2.1-11-7.1c-1.1-5,2.1-9.9,7.1-11c5-1.1,9.9,2.1,11,7.1 C137.7,136.5,134.6,141.4,129.6,142.5z M159.2,205.4c-8.6,14.3-19.7,22.5-31.6,22.5c-16.4,0-30.9-15.3-39.8-40.2h0c0,0,0-0.1,0-0.1 c-0.5-1.4,0.3-2.9,1.7-3.4c1.4-0.5,2.9,0.3,3.4,1.7c8.2,23,21.2,36.6,34.8,36.6c9.8,0,19.3-7,27-19.9c0,0,0,0,0-0.1 c0.8-1.3,2.4-1.6,3.7-0.9C159.6,202.5,160,204.2,159.2,205.4z M206.6,193c-2.8,0-5.3-0.9-7.4-2.4c-20.4,12-59.3,5.9-95.9-15.3 c-15.6-9-29.2-19.8-39.8-31.4c0,0,0,0,0,0c-1-1.1-0.9-2.8,0.2-3.8c1.1-1,2.8-0.9,3.8,0.2c10.1,11.1,23.4,21.6,38.5,30.4 c34.5,19.9,70.9,25.9,89.5,15.8c-1.1-1.9-1.7-4-1.7-6.3c0-7,5.7-12.8,12.8-12.8c7,0,12.8,5.7,12.8,12.8 C219.3,187.3,213.6,193,206.6,193z" class="st0"/><circle cx="127.6" cy="41.7" r="7.4" class="st0"/><path d="M201.7,185.8c0,0.1,0.1,0.1,0.1,0.2c1.3,1.1,2.9,1.7,4.8,1.7c4.1,0,7.4-3.3,7.4-7.4c0-4.1-3.3-7.4-7.4-7.4 c-4.1,0-7.4,3.3-7.4,7.4c0,1.8,0.6,3.4,1.7,4.7C201.1,185.2,201.5,185.4,201.7,185.8z" class="st0"/></g></svg>