<svg xmlns="http://www.w3.org/2000/svg" xmlns:xlink="http://www.w3.org/1999/xlink" id="Layer_1" x="0" y="0" version="1.1" viewBox="0 0 250.7 250.7" style="enable-background:new 0 0 250.7 250.7" xml:space="preserve"><style type="text/css">.st0{fill:#fff}</style><path d="M62.1,0C27.7,0,0,27.7,0,62.1v126.4c0,34.4,27.7,62.1,62.1,62.1h126.4c34.4,0,62.1-27.7,62.1-62.1V62.1	C250.7,27.7,223,0,188.6,0L62.1,0z M66.8,132.6c1.7,0,3.4,0.1,5.1,0.3c1.7,0.2,3.4,0.4,5.1,0.8c1.7,0.3,3.3,0.8,5,1.3	c1.6,0.5,3.2,1.1,4.8,1.8c1.6,0.7,3.1,1.4,4.6,2.2c1.5,0.8,3,1.7,4.4,2.7c1.4,1,2.8,2,4.1,3.1c1.3,1.1,2.6,2.3,3.7,3.5	c1.2,1.2,2.3,2.5,3.4,3.8c1.1,1.3,2.1,2.7,3,4.2c0.9,1.4,1.8,2.9,2.5,4.4c0.8,1.5,1.5,3.1,2.1,4.7c0.6,1.6,1.2,3.2,1.6,4.8	c0.5,1.6,0.8,3.3,1.1,5c0.3,1.7,0.5,3.4,0.6,5.1c0.1,1.2,0.1,2.4,0.1,3.6c0,1.7-0.1,3.4-0.3,5.1c-0.2,1.7-0.4,3.4-0.8,5.1	c-0.3,1.7-0.8,3.3-1.3,5c-0.5,1.6-1.1,3.2-1.8,4.8c-0.7,1.6-1.4,3.1-2.2,4.6c-0.8,1.5-1.7,3-2.7,4.4c-1,1.4-2,2.8-3.1,4.1	c-1.1,1.3-2.3,2.6-3.5,3.7c-1.2,1.2-2.5,2.3-3.8,3.4c-1.3,1.1-2.7,2.1-4.2,3c-1.4,0.9-2.9,1.8-4.4,2.5c-1.5,0.8-3.1,1.5-4.7,2.1	c-1.6,0.6-3.2,1.2-4.8,1.6c-1.6,0.5-3.3,0.8-5,1.1c-1.7,0.3-3.4,0.5-5.1,0.6c-1.2,0.1-2.4,0.1-3.6,0.1c-1.7,0-3.4-0.1-5.1-0.3	c-1.7-0.2-3.4-0.4-5.1-0.8c-1.7-0.3-3.3-0.8-5-1.3c-1.6-0.5-3.2-1.1-4.8-1.8c-1.6-0.7-3.1-1.4-4.6-2.2c-1.5-0.8-3-1.7-4.4-2.7	c-1.4-1-2.8-2-4.1-3.1c-1.3-1.1-2.6-2.3-3.7-3.5c-1.2-1.2-2.3-2.5-3.4-3.8c-1.1-1.3-2.1-2.7-3-4.2c-0.9-1.4-1.8-2.9-2.5-4.4	c-0.8-1.5-1.5-3.1-2.1-4.7c-0.6-1.6-1.2-3.2-1.6-4.8c-0.5-1.6-0.8-3.3-1.1-5c-0.3-1.7-0.5-3.4-0.6-5.1c-0.1-1.2-0.1-2.4-0.1-3.6	c0-1.7,0.1-3.4,0.3-5.1c0.2-1.7,0.4-3.4,0.8-5.1c0.3-1.7,0.8-3.3,1.3-5c0.5-1.6,1.1-3.2,1.8-4.8c0.7-1.6,1.4-3.1,2.2-4.6	c0.8-1.5,1.7-3,2.7-4.4c1-1.4,2-2.8,3.1-4.1c1.1-1.3,2.3-2.6,3.5-3.7c1.2-1.2,2.5-2.3,3.8-3.4c1.3-1.1,2.7-2.1,4.2-3	c1.4-0.9,2.9-1.8,4.4-2.5c1.5-0.8,3.1-1.5,4.7-2.1c1.6-0.6,3.2-1.2,4.8-1.6c1.6-0.5,3.3-0.8,5-1.1c1.7-0.3,3.4-0.5,5.1-0.6	C64.4,132.6,65.6,132.6,66.8,132.6L66.8,132.6z M184.3,132.6c1.7,0,3.4,0.1,5.1,0.3c1.7,0.2,3.4,0.4,5.1,0.8c1.7,0.3,3.3,0.8,5,1.3	c1.6,0.5,3.2,1.1,4.8,1.8c1.6,0.7,3.1,1.4,4.6,2.2c1.5,0.8,3,1.7,4.4,2.7c1.4,1,2.8,2,4.1,3.1c1.3,1.1,2.6,2.3,3.7,3.5	c1.2,1.2,2.3,2.5,3.4,3.8c1.1,1.3,2.1,2.7,3,4.2c0.9,1.4,1.8,2.9,2.5,4.4c0.8,1.5,1.5,3.1,2.1,4.7c0.6,1.6,1.2,3.2,1.6,4.8	c0.5,1.6,0.8,3.3,1.1,5c0.3,1.7,0.5,3.4,0.6,5.1c0.1,1.2,0.1,2.4,0.1,3.6c0,1.7-0.1,3.4-0.3,5.1c-0.2,1.7-0.4,3.4-0.8,5.1	c-0.3,1.7-0.8,3.3-1.3,5c-0.5,1.6-1.1,3.2-1.8,4.8c-0.7,1.6-1.4,3.1-2.2,4.6c-0.8,1.5-1.7,3-2.7,4.4c-1,1.4-2,2.8-3.1,4.1	c-1.1,1.3-2.3,2.6-3.5,3.7c-1.2,1.2-2.5,2.3-3.8,3.4c-1.3,1.1-2.7,2.1-4.2,3c-1.4,0.9-2.9,1.8-4.4,2.5c-1.5,0.8-3.1,1.5-4.7,2.1	c-1.6,0.6-3.2,1.2-4.8,1.6c-1.6,0.5-3.3,0.8-5,1.1c-1.7,0.3-3.4,0.5-5.1,0.6c-1.2,0.1-2.4,0.1-3.6,0.1c-1.7,0-3.4-0.1-5.1-0.3	c-1.7-0.2-3.4-0.4-5.1-0.8c-1.7-0.3-3.3-0.8-5-1.3c-1.6-0.5-3.2-1.1-4.8-1.8c-1.6-0.7-3.1-1.4-4.6-2.2c-1.5-0.8-3-1.7-4.4-2.7	c-1.4-1-2.8-2-4.1-3.1c-1.3-1.1-2.6-2.3-3.7-3.5c-1.2-1.2-2.3-2.5-3.4-3.8c-1.1-1.3-2.1-2.7-3-4.2c-0.9-1.4-1.8-2.9-2.5-4.4	c-0.8-1.5-1.5-3.1-2.1-4.7c-0.6-1.6-1.2-3.2-1.6-4.8c-0.5-1.6-0.8-3.3-1.1-5c-0.3-1.7-0.5-3.4-0.6-5.1c-0.1-1.2-0.1-2.4-0.1-3.6	c0-1.7,0.1-3.4,0.3-5.1c0.2-1.7,0.4-3.4,0.8-5.1c0.3-1.7,0.8-3.3,1.3-5c0.5-1.6,1.1-3.2,1.8-4.8c0.7-1.6,1.4-3.1,2.2-4.6	c0.8-1.5,1.7-3,2.7-4.4c1-1.4,2-2.8,3.1-4.1c1.1-1.3,2.3-2.6,3.5-3.7c1.2-1.2,2.5-2.3,3.8-3.4c1.3-1.1,2.7-2.1,4.2-3	c1.4-0.9,2.9-1.8,4.4-2.5c1.5-0.8,3.1-1.5,4.7-2.1c1.6-0.6,3.2-1.2,4.8-1.6c1.6-0.5,3.3-0.8,5-1.1c1.7-0.3,3.4-0.5,5.1-0.6	C181.9,132.6,183.1,132.6,184.3,132.6L184.3,132.6z" class="st0"/></svg>